<?xml version="1.0" encoding="UTF-8" standalone="no"?>
<!-- Created with Inkscape (http://www.inkscape.org/) -->

<svg
   version="1.1"
   id="svg2"
   width="1440"
   height="1440"
   viewBox="0 0 1440 1440"
   sodipodi:docname="Bahr tech finalx.ai"
   xmlns:inkscape="http://www.inkscape.org/namespaces/inkscape"
   xmlns:sodipodi="http://sodipodi.sourceforge.net/DTD/sodipodi-0.dtd"
   xmlns="http://www.w3.org/2000/svg"
   xmlns:svg="http://www.w3.org/2000/svg">
  <defs
     id="defs6">
    <clipPath
       clipPathUnits="userSpaceOnUse"
       id="clipPath18">
      <path
         d="M 0,1080 H 1080 V 0 H 0 Z"
         id="path16" />
    </clipPath>
  </defs>
  <sodipodi:namedview
     id="namedview4"
     pagecolor="#ffffff"
     bordercolor="#000000"
     borderopacity="0.25"
     inkscape:showpageshadow="2"
     inkscape:pageopacity="0.0"
     inkscape:pagecheckerboard="0"
     inkscape:deskcolor="#d1d1d1" />
  <g
     id="g8"
     inkscape:groupmode="layer"
     inkscape:label="Bahr tech finalx"
     transform="matrix(1.3333333,0,0,-1.3333333,0,1440)">
    <path
       d="M 0,0 H 1080 V 1080 H 0 Z"
       style="fill:#ffffff;fill-opacity:1;fill-rule:nonzero;stroke:none"
       id="path10" />
    <g
       id="g12">
      <g
         id="g14"
         clip-path="url(#clipPath18)">
        <g
           id="g20"
           transform="translate(178.5001,453.4875)">
          <path
             d="m 0,0 h 100.561 c 11.559,0 22.133,4.25 30.236,11.269 H 0 Z"
             style="fill:#2ce68d;fill-opacity:1;fill-rule:nonzero;stroke:none"
             id="path22" />
        </g>
        <g
           id="g24"
           transform="translate(178.5001,473.9388)">
          <path
             d="m 0,0 h 42.739 l 3.651,-4.591 h 89.007 c 1.27,1.452 2.447,2.984 3.526,4.591 h -0.017 0.017 c 2.074,3.087 3.788,6.436 5.077,9.99 H 0 Z"
             style="fill:#2ce68d;fill-opacity:1;fill-rule:nonzero;stroke:none"
             id="path26" />
        </g>
        <g
           id="g28"
           transform="translate(178.5001,503.1003)">
          <path
             d="m 0,0 v -9.99 h 54.145 l 3.314,-4.591 h 87.937 c 0.374,1.504 0.673,3.036 0.892,4.591 h -0.352 0.352 c 0.308,2.144 0.467,4.339 0.467,6.571 0,1.149 -0.042,2.289 -0.126,3.419 z"
             style="fill:#2ce68d;fill-opacity:1;fill-rule:nonzero;stroke:none"
             id="path30" />
        </g>
        <g
           id="g32"
           transform="translate(222.7512,622.7209)">
          <path
             d="M 0,0 H 90.87 C 89.418,1.639 87.853,3.171 86.181,4.586 H 86.14 86.181 C 78.13,11.423 67.701,15.547 56.31,15.547 H -44.251 V 4.586 h 41.089 z"
             style="fill:#2ce68d;fill-opacity:1;fill-rule:nonzero;stroke:none"
             id="path34" />
        </g>
        <g
           id="g36"
           transform="translate(235.9589,603.5492)">
          <path
             d="m 0,0 h 87.863 c -0.402,1.565 -0.883,3.092 -1.434,4.586 -1.322,3.559 -3.069,6.912 -5.18,9.995 H -57.459 V 4.586 h 54.297 z"
             style="fill:#2ce68d;fill-opacity:1;fill-rule:nonzero;stroke:none"
             id="path38" />
        </g>
        <g
           id="g40"
           transform="translate(249.1711,584.3776)">
          <path
             d="m 0,0 h 75.444 c 0.252,1.504 0.435,3.036 0.533,4.586 0.074,1.028 0.107,2.064 0.107,3.111 0,2.339 -0.173,4.637 -0.509,6.884 H -70.671 V 4.586 h 67.509 z"
             style="fill:#2ce68d;fill-opacity:1;fill-rule:nonzero;stroke:none"
             id="path42" />
        </g>
        <g
           id="g44"
           transform="translate(262.3835,565.2061)">
          <path
             d="m 0,0 h 54.255 c 1.056,1.466 2.022,2.998 2.896,4.586 1.728,3.125 3.101,6.478 4.068,9.995 H -83.883 V 4.586 h 80.721 z"
             style="fill:#2ce68d;fill-opacity:1;fill-rule:nonzero;stroke:none"
             id="path46" />
        </g>
        <g
           id="g48"
           transform="translate(275.5959,546.0345)">
          <path
             d="m 0,0 h 7.23 c 5.931,0.476 11.549,2.073 16.635,4.586 5.072,2.499 9.616,5.899 13.423,9.995 H -97.096 V 4.586 h 93.934 z"
             style="fill:#2ce68d;fill-opacity:1;fill-rule:nonzero;stroke:none"
             id="path50" />
        </g>
        <g
           id="g52"
           transform="translate(249.1711,507.6911)">
          <path
             d="m 0,0 h 75.393 c -0.271,1.56 -0.626,3.092 -1.046,4.591 -0.995,3.517 -2.401,6.87 -4.157,9.99 H -70.671 v -9.99 h 67.288 z"
             style="fill:#2ce68d;fill-opacity:1;fill-rule:nonzero;stroke:none"
             id="path54" />
        </g>
        <g
           id="g56"
           transform="translate(262.3835,526.8627)">
          <path
             d="m 0,0 h 54.031 c -1.172,1.611 -2.447,3.143 -3.816,4.586 -3.909,4.124 -8.57,7.529 -13.763,9.995 H -83.883 V 4.586 h 80.721 z"
             style="fill:#2ce68d;fill-opacity:1;fill-rule:nonzero;stroke:none"
             id="path58" />
        </g>
        <g
           id="g60"
           transform="translate(412.001,534.0079)">
          <path
             d="m 0,0 c -2.599,-2.681 -6.259,-4.019 -10.977,-4.019 h -22.074 v 29.392 h 22.074 c 4.799,0 8.477,-1.3 11.037,-3.899 C 2.619,18.875 3.899,15.296 3.899,10.737 3.899,6.258 2.598,2.679 0,0 m -14.216,63.883 c 4.958,0 8.618,-1.34 10.977,-4.019 C -0.88,57.183 0.3,53.725 0.3,49.487 c 0,-4.16 -1.18,-7.579 -3.539,-10.258 -2.359,-2.68 -6.019,-4.018 -10.977,-4.018 H -33.051 V 63.883 Z M 2.285,30.968 c 2.592,1.308 4.737,3.055 6.413,5.262 2.4,3.159 3.599,7.418 3.599,12.777 v 1.68 c 0,7.597 -2.36,13.415 -7.078,17.455 -4.72,4.038 -11.876,6.059 -21.474,6.059 h -16.796 -2.399 -9.358 v -88.536 h 9.358 2.399 20.395 c 6.397,0 11.716,0.938 15.955,2.818 4.239,1.879 7.397,4.599 9.477,8.159 2.08,3.557 3.12,7.897 3.12,13.016 v 1.679 c 0,5.438 -1.22,9.736 -3.659,12.896 -2.415,3.127 -5.735,5.369 -9.952,6.735"
             style="fill:#0d1335;fill-opacity:1;fill-rule:nonzero;stroke:none"
             id="path62" />
        </g>
        <g
           id="g64"
           transform="translate(587.2082,583.6135)">
          <path
             d="m 0,0 c -4.595,-0.735 -9.892,-3.968 -9.892,-7.752 l 0.062,8.353 h -8.7 v -64.062 h 11.517 c 0,0 0.037,44.174 0.037,44.481 0,6.056 4.852,9.983 10.04,9.983 H 16.98 v 9.565 c 0,0 -5.357,0.002 -10.147,0.002 C 3.779,0.57 1.022,0.164 0,0"
             style="fill:#0d1335;fill-opacity:1;fill-rule:nonzero;stroke:none"
             id="path66" />
        </g>
        <g
           id="g68"
           transform="translate(535.9295,584.1835)">
          <path
             d="m 0,0 h -7.053 c -5.987,-0.191 -14.431,-1.335 -16.101,-8.32 v 6.044 25.822 h -11.515 v -44.525 -14.509 -28.548 h 11.515 v 9.845 23.95 c 0,0.516 0.044,1.032 0.044,1.536 v 3.341 c 0,0.643 0.01,1.257 0.029,1.842 0.201,6.238 4.988,11.503 11.212,11.963 0.048,0.003 0.096,0.007 0.144,0.01 H 0 c 1.626,0 3.162,-0.415 4.496,-1.133 0.011,-0.011 0.022,-0.011 0.034,-0.022 2.926,-1.603 4.911,-4.709 4.911,-8.275 L 9.475,-64.036 H 20.99 v 28.01 c 0.011,0.179 0.011,0.358 0.011,0.538 v 14.509 c 0,4.967 -1.738,9.531 -4.631,13.13 C 12.524,-3.061 6.615,0 0,0"
             style="fill:#0d1335;fill-opacity:1;fill-rule:nonzero;stroke:none"
             id="path70" />
        </g>
        <g
           id="g72"
           transform="translate(478.3414,543.9075)">
          <path
             d="m 0,0 c -0.157,-4.16 -1.054,-7.423 -2.703,-9.777 -0.014,-0.021 -0.029,-0.043 -0.044,-0.064 -2.096,-3.002 -5.63,-4.668 -9.291,-4.668 h -11.026 c -1.234,0 -2.4,0.269 -3.443,0.774 -2.769,1.289 -4.686,4.104 -4.686,7.355 v 5.45 c 0,4.489 3.639,8.129 8.129,8.129 h 2.959 L 0,7.199 Z m -1.828,38.908 c -1.278,0.505 -2.635,0.874 -4.025,1.099 l -0.202,0.034 c -1.009,0.156 -2.029,0.235 -3.072,0.235 h -25.419 -2.793 v -9.567 h 2.793 v 0.003 h 9.564 14.801 1.054 C -4.087,30.712 0,26.625 0,21.584 v -3.733 h -23.064 c -9.655,0 -17.627,-7.311 -18.658,-16.696 -0.09,-0.684 -0.123,-1.379 -0.123,-2.085 v -5.45 c 0,-5.797 2.634,-11 6.783,-14.442 0.022,-0.011 0.034,-0.033 0.056,-0.045 3.106,-2.567 7.053,-4.159 11.37,-4.283 l 6.503,-0.011 h 0.179 c 1.22,0 2.444,0.064 3.647,0.27 2.072,0.355 3.971,0.99 5.694,1.861 3.15,1.592 5.639,3.935 7.433,7.007 0.281,0.482 0.55,0.987 0.786,1.514 0.527,1.065 0.953,2.198 1.311,3.42 v -12.67 h 9.127 v 19.846 20.71 3.308 c 0,2.836 -0.594,5.538 -1.659,7.994 -2.13,4.934 -6.19,8.858 -11.213,10.809"
             style="fill:#0d1335;fill-opacity:1;fill-rule:nonzero;stroke:none"
             id="path74" />
        </g>
        <g
           id="g76"
           transform="translate(890.134,576.3358)">
          <path
             d="m 0,0 c -3.846,4.788 -9.755,7.849 -16.37,7.849 h -7.053 C -29.411,7.658 -37.854,6.514 -39.524,-0.471 V 5.573 31.396 H -51.04 V -13.13 -27.639 -56.187 h 11.516 v 9.845 23.951 c 0,0.515 0.044,1.031 0.044,1.536 v 3.34 c 0,0.643 0.01,1.257 0.029,1.842 0.201,6.238 4.988,11.503 11.212,11.963 0.048,0.004 0.096,0.007 0.143,0.01 h 11.726 c 1.625,0 3.162,-0.415 4.496,-1.133 0.011,-0.011 0.022,-0.011 0.033,-0.022 2.927,-1.603 4.911,-4.709 4.911,-8.275 l 0.035,-43.057 H 4.619 v 28.01 c 0.012,0.179 0.012,0.359 0.012,0.538 V -13.13 C 4.631,-8.163 2.892,-3.599 0,0"
             style="fill:#0d1335;fill-opacity:1;fill-rule:nonzero;stroke:none"
             id="path78" />
        </g>
        <g
           id="g80"
           transform="translate(777.7677,559.5023)">
          <path
             d="m 0,0 c 0,8.83 7.158,15.989 15.989,15.989 h 6.985 c 8.128,0 14.956,-6.078 15.881,-14.139 h 10.59 c 10e-4,0.851 -0.039,1.705 -0.174,2.546 -2.092,13.03 -12.897,21.833 -26.297,21.833 l -6.985,0.005 C 0.99,26.234 -11.213,14.999 -11.213,0 v -7.756 -7.756 c 0,-14.999 12.203,-26.233 27.202,-26.233 l 6.985,0.005 c 13.399,0 24.205,8.802 26.297,21.832 0.135,0.841 0.174,1.695 0.174,2.547 H 38.855 C 37.93,-25.422 31.102,-31.5 22.974,-31.5 H 15.989 C 7.158,-31.5 0,-24.342 0,-15.512 v 7.756 z"
             style="fill:#0d1335;fill-opacity:1;fill-rule:nonzero;stroke:none"
             id="path82" />
        </g>
        <g
           id="g84"
           transform="translate(744.7484,560.0419)">
          <path
             d="m 0,0 h -38.849 c 0.056,8.769 7.201,15.886 15.983,15.886 h 6.985 c 6.774,0 12.644,-4.221 14.948,-10.293 C -0.26,3.82 0,1.917 0,0.022 Z m -15.881,26.126 -6.985,0.005 c -14.999,0 -27.201,-11.235 -27.201,-26.234 v -7.756 -7.756 c 0,-14.999 12.202,-26.233 27.201,-26.233 l 6.985,0.005 c 13.83,0 24.877,9.372 26.453,23.095 L 0,-18.747 c -0.924,-8.062 -7.752,-12.856 -15.881,-12.856 h -6.985 c -8.83,0 -15.989,7.158 -15.989,15.988 v 7.756 H 10.591 V -1.906 0 0.878 c 0,2.053 -0.216,4.109 -0.741,6.094 -3.055,11.543 -13.271,19.154 -25.731,19.154"
             style="fill:#0d1335;fill-opacity:1;fill-rule:nonzero;stroke:none"
             id="path86" />
        </g>
        <g
           id="g88"
           transform="translate(704.9492,597.1709)">
          <path
             d="m 0,0 v 1.339 9.218 H -5.728 -70.75 -76.478 V 1.339 0 -0.492 h 32.36 v -76.527 h 11.757 v 76.527 l 32.361,0 z"
             style="fill:#0d1335;fill-opacity:1;fill-rule:nonzero;stroke:none"
             id="path90" />
        </g>
        <path
           d="m 369.451,492.709 h 2.669 v -16.07 h -2.669 z m -0.439,4.43 c 0,1.025 0.791,1.818 1.818,1.818 0.968,0 1.76,-0.793 1.76,-1.818 0,-1.028 -0.792,-1.819 -1.76,-1.819 -1.027,0 -1.818,0.791 -1.818,1.819"
           style="fill:#0d1335;fill-opacity:1;fill-rule:nonzero;stroke:none"
           id="path92" />
        <g
           id="g94"
           transform="translate(406.843,485.7305)">
          <path
             d="m 0,0 c 0,3.283 -1.76,4.955 -4.399,4.955 -2.698,0 -4.545,-1.73 -4.545,-5.191 v -8.856 h -2.64 V 0 c 0,3.283 -1.76,4.955 -4.399,4.955 -2.699,0 -4.546,-1.73 -4.546,-5.191 v -8.856 h -2.669 V 6.979 h 2.669 V 4.662 c 1.055,1.701 2.962,2.609 5.074,2.609 2.64,0 4.839,-1.171 5.894,-3.576 0.939,2.317 3.226,3.576 5.69,3.576 3.666,0 6.511,-2.287 6.511,-6.89 V -9.092 H 0 Z"
             style="fill:#0d1335;fill-opacity:1;fill-rule:nonzero;stroke:none"
             id="path96" />
        </g>
        <g
           id="g98"
           transform="translate(427.9866,490.6562)">
          <path
             d="m 0,0 c -2.932,0 -5.425,-2.141 -5.425,-5.924 0,-3.783 2.493,-6.012 5.425,-6.012 2.934,0 5.455,2.2 5.455,5.983 C 5.455,-2.229 2.934,0 0,0 m -0.527,2.316 c 2.991,0 5.044,-1.523 5.982,-3.195 V 2.053 H 8.153 V -14.018 H 5.455 v 2.991 c -0.968,-1.731 -3.05,-3.254 -6.012,-3.254 -4.281,0 -7.595,3.371 -7.595,8.357 0,5.016 3.314,8.24 7.625,8.24"
             style="fill:#0d1335;fill-opacity:1;fill-rule:nonzero;stroke:none"
             id="path100" />
        </g>
        <g
           id="g102"
           transform="translate(454.7913,490.6562)">
          <path
             d="m 0,0 c -2.933,0 -5.426,-2.141 -5.426,-5.924 0,-3.783 2.493,-6.012 5.426,-6.012 2.934,0 5.455,2.2 5.455,5.983 C 5.455,-2.229 2.934,0 0,0 m -0.527,2.316 c 2.932,0 5.044,-1.464 5.982,-3.195 v 2.932 h 2.698 v -16.422 c 0,-4.43 -2.962,-7.567 -7.683,-7.567 -4.224,0 -7.244,2.141 -7.773,5.571 h 2.64 c 0.587,-1.936 2.493,-3.254 5.133,-3.254 2.844,0 4.985,1.818 4.985,5.25 v 3.371 c -0.968,-1.731 -3.05,-3.283 -5.982,-3.283 -4.312,0 -7.625,3.371 -7.625,8.357 0,5.016 3.313,8.24 7.625,8.24"
             style="fill:#0d1335;fill-opacity:1;fill-rule:nonzero;stroke:none"
             id="path104" />
        </g>
        <path
           d="m 474.44,492.709 h 2.669 v -16.07 h -2.669 z m -0.44,4.43 c 0,1.025 0.791,1.818 1.819,1.818 0.967,0 1.759,-0.793 1.759,-1.818 0,-1.028 -0.792,-1.819 -1.759,-1.819 -1.028,0 -1.819,0.791 -1.819,1.819"
           style="fill:#0d1335;fill-opacity:1;fill-rule:nonzero;stroke:none"
           id="path106" />
        <g
           id="g108"
           transform="translate(500.3938,485.7305)">
          <path
             d="m 0,0 c 0,3.283 -1.789,4.955 -4.487,4.955 -2.727,0 -4.604,-1.701 -4.604,-5.162 V -9.092 H -11.76 V 6.979 h 2.669 V 4.691 c 1.055,1.672 2.991,2.58 5.161,2.58 3.725,0 6.57,-2.287 6.57,-6.89 V -9.092 H 0 Z"
             style="fill:#0d1335;fill-opacity:1;fill-rule:nonzero;stroke:none"
             id="path110" />
        </g>
        <g
           id="g112"
           transform="translate(516.1418,485.8477)">
          <path
             d="M 0,0 H 10.147 C 10.177,3.137 7.831,4.867 5.073,4.867 2.464,4.867 0.293,3.137 0,0 m 5.19,-9.473 c -4.574,0 -7.947,3.225 -7.947,8.328 0,5.075 3.256,8.27 7.947,8.27 4.664,0 7.714,-3.283 7.714,-7.684 0,-0.586 -0.029,-1.054 -0.088,-1.613 H -0.029 c 0.205,-3.254 2.493,-5.043 5.219,-5.043 2.406,0 3.931,1.231 4.518,2.961 h 2.873 C 11.761,-7.186 9.18,-9.473 5.19,-9.473"
             style="fill:#0d1335;fill-opacity:1;fill-rule:nonzero;stroke:none"
             id="path114" />
        </g>
        <g
           id="g116"
           transform="translate(556.1135,485.8477)">
          <path
             d="M 0,0 H 10.147 C 10.177,3.137 7.83,4.867 5.074,4.867 2.464,4.867 0.293,3.137 0,0 m 5.191,-9.473 c -4.575,0 -7.948,3.225 -7.948,8.328 0,5.075 3.256,8.27 7.948,8.27 4.663,0 7.713,-3.283 7.713,-7.684 0,-0.586 -0.029,-1.054 -0.088,-1.613 H -0.029 c 0.205,-3.254 2.493,-5.043 5.22,-5.043 2.405,0 3.93,1.231 4.516,2.961 h 2.875 C 11.761,-7.186 9.18,-9.473 5.191,-9.473"
             style="fill:#0d1335;fill-opacity:1;fill-rule:nonzero;stroke:none"
             id="path118" />
        </g>
        <g
           id="g120"
           transform="translate(584.0911,482.6211)">
          <path
             d="m 0,0 -3.665,-5.982 h -2.787 l 5.191,7.976 -5.191,8.094 h 3.021 L 0.382,4.135 4.019,10.088 H 6.804 L 1.643,2.141 6.833,-5.982 h -3.02 z"
             style="fill:#0d1335;fill-opacity:1;fill-rule:nonzero;stroke:none"
             id="path122" />
        </g>
        <g
           id="g124"
           transform="translate(608.6663,490.6562)">
          <path
             d="m 0,0 c -2.902,0 -5.454,-2.229 -5.454,-5.953 0,-3.783 2.552,-5.983 5.454,-5.983 2.963,0 5.455,2.229 5.455,6.012 C 5.455,-2.141 2.963,0 0,0 m 0.558,2.316 c 4.311,0 7.625,-3.224 7.625,-8.24 0,-4.986 -3.314,-8.357 -7.625,-8.357 -2.933,0 -5.015,1.582 -6.012,3.224 V -21.643 H -8.123 V 2.053 h 2.669 v -2.961 c 0.968,1.701 3.079,3.224 6.012,3.224"
             style="fill:#0d1335;fill-opacity:1;fill-rule:nonzero;stroke:none"
             id="path126" />
        </g>
        <path
           d="m 627.348,498.34 h 2.668 v -21.701 h -2.668 z"
           style="fill:#0d1335;fill-opacity:1;fill-rule:nonzero;stroke:none"
           id="path128" />
        <g
           id="g130"
           transform="translate(648.551,478.7207)">
          <path
             d="m 0,0 c 2.785,0 5.513,1.906 5.513,5.982 0,4.047 -2.669,5.954 -5.425,5.954 -2.817,0 -5.367,-1.907 -5.367,-5.954 C -5.279,1.906 -2.787,0 0,0 m 0,-2.346 c -4.547,0 -8.007,3.225 -8.007,8.328 0,5.075 3.578,8.27 8.124,8.27 4.574,0 8.123,-3.195 8.123,-8.27 C 8.24,0.879 4.574,-2.346 0,-2.346"
             style="fill:#0d1335;fill-opacity:1;fill-rule:nonzero;stroke:none"
             id="path132" />
        </g>
        <g
           id="g134"
           transform="translate(669.9583,476.6387)">
          <path
             d="M 0,0 H -2.669 V 16.07 H 0 v -2.609 c 0.909,1.789 2.64,2.902 5.191,2.902 V 13.607 H 4.487 C 1.936,13.607 0,12.463 0,8.738 Z"
             style="fill:#0d1335;fill-opacity:1;fill-rule:nonzero;stroke:none"
             id="path136" />
        </g>
        <g
           id="g138"
           transform="translate(686.967,485.8477)">
          <path
             d="M 0,0 H 10.147 C 10.178,3.137 7.831,4.867 5.074,4.867 2.464,4.867 0.294,3.137 0,0 m 5.191,-9.473 c -4.575,0 -7.947,3.225 -7.947,8.328 0,5.075 3.255,8.27 7.947,8.27 4.663,0 7.713,-3.283 7.713,-7.684 0,-0.586 -0.029,-1.054 -0.088,-1.613 H -0.029 c 0.206,-3.254 2.493,-5.043 5.22,-5.043 2.405,0 3.93,1.231 4.517,2.961 h 2.874 C 11.761,-7.186 9.18,-9.473 5.191,-9.473"
             style="fill:#0d1335;fill-opacity:1;fill-rule:nonzero;stroke:none"
             id="path140" />
        </g>
        <path
           d="m 725.18,492.709 h 2.669 v -16.07 h -2.669 z m -0.44,4.43 c 0,1.025 0.791,1.818 1.819,1.818 0.967,0 1.759,-0.793 1.759,-1.818 0,-1.028 -0.792,-1.819 -1.759,-1.819 -1.028,0 -1.819,0.791 -1.819,1.819"
           style="fill:#0d1335;fill-opacity:1;fill-rule:nonzero;stroke:none"
           id="path142" />
        <g
           id="g144"
           transform="translate(751.134,485.7305)">
          <path
             d="m 0,0 c 0,3.283 -1.789,4.955 -4.487,4.955 -2.728,0 -4.605,-1.701 -4.605,-5.162 v -8.885 h -2.669 V 6.979 h 2.669 V 4.691 c 1.056,1.672 2.991,2.58 5.161,2.58 3.725,0 6.571,-2.287 6.571,-6.89 V -9.092 H 0 Z"
             style="fill:#0d1335;fill-opacity:1;fill-rule:nonzero;stroke:none"
             id="path146" />
        </g>
        <g
           id="g148"
           transform="translate(776.8831,485.7305)">
          <path
             d="m 0,0 c 0,3.283 -1.789,4.955 -4.487,4.955 -2.728,0 -4.605,-1.701 -4.605,-5.162 v -8.885 h -2.669 V 6.979 h 2.669 V 4.691 c 1.056,1.672 2.991,2.58 5.161,2.58 3.725,0 6.57,-2.287 6.57,-6.89 v -9.473 l -2.639,0 z"
             style="fill:#0d1335;fill-opacity:1;fill-rule:nonzero;stroke:none"
             id="path150" />
        </g>
        <g
           id="g152"
           transform="translate(797.8801,478.7207)">
          <path
             d="m 0,0 c 2.786,0 5.514,1.906 5.514,5.982 0,4.047 -2.669,5.954 -5.426,5.954 -2.816,0 -5.367,-1.907 -5.367,-5.954 C -5.279,1.906 -2.786,0 0,0 m 0,-2.346 c -4.546,0 -8.007,3.225 -8.007,8.328 0,5.075 3.578,8.27 8.124,8.27 4.575,0 8.124,-3.195 8.124,-8.27 C 8.241,0.879 4.575,-2.346 0,-2.346"
             style="fill:#0d1335;fill-opacity:1;fill-rule:nonzero;stroke:none"
             id="path154" />
        </g>
        <g
           id="g156"
           transform="translate(817.5872,492.709)">
          <path
             d="M 0,0 5.015,-13.607 10.001,0 h 2.845 L 6.54,-16.07 H 3.432 L -2.874,0 Z"
             style="fill:#0d1335;fill-opacity:1;fill-rule:nonzero;stroke:none"
             id="path158" />
        </g>
        <g
           id="g160"
           transform="translate(847.2073,490.6562)">
          <path
             d="m 0,0 c -2.933,0 -5.426,-2.141 -5.426,-5.924 0,-3.783 2.493,-6.012 5.426,-6.012 2.933,0 5.455,2.2 5.455,5.983 C 5.455,-2.229 2.933,0 0,0 m -0.528,2.316 c 2.991,0 5.044,-1.523 5.983,-3.195 V 2.053 H 8.152 V -14.018 H 5.455 v 2.991 c -0.969,-1.731 -3.051,-3.254 -6.013,-3.254 -4.282,0 -7.595,3.371 -7.595,8.357 0,5.016 3.313,8.24 7.625,8.24"
             style="fill:#0d1335;fill-opacity:1;fill-rule:nonzero;stroke:none"
             id="path162" />
        </g>
        <g
           id="g164"
           transform="translate(867.4417,490.5098)">
          <path
             d="M 0,0 H -2.082 V 2.199 H 0 V 6.246 H 2.669 V 2.199 H 6.863 V 0 H 2.669 v -9.473 c 0,-1.584 0.587,-2.14 2.229,-2.14 h 1.965 v -2.258 H 4.458 C 1.613,-13.871 0,-12.699 0,-9.473 Z"
             style="fill:#0d1335;fill-opacity:1;fill-rule:nonzero;stroke:none"
             id="path166" />
        </g>
        <g
           id="g168"
           transform="translate(886.2698,485.8477)">
          <path
             d="M 0,0 H 10.146 C 10.176,3.137 7.83,4.867 5.073,4.867 2.463,4.867 0.293,3.137 0,0 m 5.19,-9.473 c -4.575,0 -7.947,3.225 -7.947,8.328 0,5.075 3.255,8.27 7.947,8.27 4.664,0 7.714,-3.283 7.714,-7.684 0,-0.586 -0.029,-1.054 -0.088,-1.613 H -0.029 c 0.205,-3.254 2.492,-5.043 5.219,-5.043 2.406,0 3.931,1.231 4.517,2.961 h 2.874 C 11.76,-7.186 9.18,-9.473 5.19,-9.473"
             style="fill:#0d1335;fill-opacity:1;fill-rule:nonzero;stroke:none"
             id="path170" />
        </g>
      </g>
    </g>
  </g>
</svg>
