<?xml version="1.0" encoding="UTF-8"?>
<svg id="Layer_1" data-name="Layer 1" xmlns="http://www.w3.org/2000/svg" viewBox="0 0 720.67 184.78">
  <defs>
    <style>
      .cls-1 {
        fill: #2ce68d;
      }

      .cls-1, .cls-2 {
        stroke-width: 0px;
      }

      .cls-2 {
        fill: #fff;
      }
    </style>
  </defs>
  <g>
    <path class="cls-1" d="m0,184.78h100.56c11.56,0,22.13-4.25,30.24-11.27H0v11.27Z"/>
    <path class="cls-1" d="m0,164.33h42.74l3.65,4.59h89.01c1.27-1.45,2.45-2.98,3.53-4.59h-.02.02c2.07-3.09,3.79-6.44,5.08-9.99H0v9.99Z"/>
    <path class="cls-1" d="m0,135.17v9.99h54.14l3.31,4.59h87.94c.37-1.5.67-3.04.89-4.59h-.35.35c.31-2.14.47-4.34.47-6.57,0-1.15-.04-2.29-.13-3.42H0Z"/>
    <path class="cls-1" d="m44.25,15.55h90.87c-1.45-1.64-3.02-3.17-4.69-4.59h-.04.04C122.38,4.12,111.95,0,100.56,0H0v10.96h41.09l3.16,4.59Z"/>
    <path class="cls-1" d="m57.46,34.72h87.86c-.4-1.56-.88-3.09-1.43-4.59-1.32-3.56-3.07-6.91-5.18-9.99H0v9.99h54.3l3.16,4.59Z"/>
    <path class="cls-1" d="m70.67,53.89h75.44c.25-1.5.43-3.04.53-4.59h0c.07-1.03.11-2.06.11-3.11,0-2.34-.17-4.64-.51-6.88H0v9.99h67.51l3.16,4.59Z"/>
    <path class="cls-1" d="m83.88,73.06h54.26c1.06-1.47,2.02-3,2.9-4.59h0c1.73-3.12,3.1-6.48,4.07-9.99H0v9.99h80.72l3.16,4.59Z"/>
    <path class="cls-1" d="m97.1,92.23h7.23c5.93-.48,11.55-2.07,16.64-4.59h0c5.07-2.5,9.62-5.9,13.42-9.99H0v9.99h93.93l3.16,4.59Z"/>
    <path class="cls-1" d="m70.67,130.58h75.39c-.27-1.56-.63-3.09-1.05-4.59h0c-.99-3.52-2.4-6.87-4.16-9.99H0v9.99h67.29l3.38,4.59Z"/>
    <path class="cls-1" d="m83.88,111.41h54.03c-1.17-1.61-2.45-3.14-3.82-4.59h0c-3.91-4.12-8.57-7.53-13.76-9.99H0v9.99h80.72l3.16,4.59Z"/>
  </g>
  <g>
    <g>
      <path class="cls-2" d="m235.79,73.29c2.59-1.31,4.74-3.06,6.41-5.26,2.4-3.16,3.6-7.42,3.6-12.78v-1.68c0-7.6-2.36-13.42-7.08-17.45-4.72-4.04-11.88-6.06-21.47-6.06h-28.55v88.54h32.15c6.4,0,11.72-.94,15.95-2.82,4.24-1.88,7.4-4.6,9.48-8.16,2.08-3.56,3.12-7.9,3.12-13.02v-1.68c0-5.44-1.22-9.74-3.66-12.9-2.41-3.13-5.73-5.37-9.95-6.73Zm-16.5-32.92c4.96,0,8.62,1.34,10.98,4.02,2.36,2.68,3.54,6.14,3.54,10.38s-1.18,7.58-3.54,10.26c-2.36,2.68-6.02,4.02-10.98,4.02h-18.83v-28.67h18.83Zm14.22,63.88c-2.6,2.68-6.26,4.02-10.98,4.02h-22.07v-29.39h22.07c4.8,0,8.48,1.3,11.04,3.9,2.56,2.6,3.84,6.18,3.84,10.74s-1.3,8.06-3.9,10.74Z"/>
      <path class="cls-2" d="m408.71,54.65c-4.59.74-9.89,3.97-9.89,7.75l.06-8.35h-8.7v64.06h11.52s.04-44.17.04-44.48c0-6.06,4.85-9.98,10.04-9.98h13.92v-9.56s-5.36,0-10.15,0c-3.05,0-5.81.41-6.83.57Z"/>
      <path class="cls-2" d="m357.43,54.08h-7.05c-5.99.19-14.43,1.33-16.1,8.32v-31.87h-11.52v87.58h11.52v-33.8c0-.52.04-1.03.04-1.54v-3.34c0-.64,0-1.26.03-1.84.2-6.24,4.99-11.5,11.21-11.96.05,0,.1,0,.14-.01h11.73c1.63,0,3.16.41,4.5,1.13.01.01.02.01.03.02,2.93,1.6,4.91,4.71,4.91,8.27l.03,43.06h11.51v-28.01c.01-.18.01-.36.01-.54v-14.51c0-4.97-1.74-9.53-4.63-13.13-3.85-4.79-9.76-7.85-16.37-7.85Z"/>
      <path class="cls-2" d="m298.01,55.45c-1.28-.5-2.63-.87-4.03-1.1l-.2-.03c-1.01-.16-2.03-.24-3.07-.24h-28.21v9.57h2.79s9.56,0,9.56,0h15.85c5.04,0,9.13,4.09,9.13,9.13v3.73h-23.06c-9.65,0-17.63,7.31-18.66,16.7-.09.68-.12,1.38-.12,2.09v5.45c0,5.8,2.63,11,6.78,14.44.02.01.03.03.06.05,3.11,2.57,7.05,4.16,11.37,4.28h6.5s.18.01.18.01c1.22,0,2.44-.06,3.65-.27,2.07-.35,3.97-.99,5.69-1.86,3.15-1.59,5.64-3.94,7.43-7.01.28-.48.55-.99.79-1.51.53-1.07.95-2.2,1.31-3.42v12.67h9.13v-43.86c0-2.84-.59-5.54-1.66-7.99-2.13-4.93-6.19-8.86-11.21-10.81Zm1.83,38.91c-.16,4.16-1.05,7.42-2.7,9.78-.01.02-.03.04-.04.06-2.09,3-5.63,4.67-9.29,4.67h-11.03c-1.23,0-2.4-.27-3.44-.77-2.77-1.29-4.69-4.1-4.69-7.36v-5.45c0-4.49,3.64-8.13,8.13-8.13h23.06v7.2Z"/>
      <path class="cls-2" d="m711.63,61.93c-3.85-4.79-9.76-7.85-16.37-7.85h-7.05c-5.99.19-14.43,1.33-16.1,8.32v-31.87h-11.52v87.58h11.52v-33.8c0-.52.04-1.03.04-1.54v-3.34c0-.64,0-1.26.03-1.84.2-6.24,4.99-11.5,11.21-11.96.05,0,.1,0,.14-.01h11.73c1.63,0,3.16.42,4.5,1.13.01.01.02.01.03.02,2.93,1.6,4.91,4.71,4.91,8.27l.03,43.06h11.51v-28.01c.01-.18.01-.36.01-.54v-14.51c0-4.97-1.74-9.53-4.63-13.13Z"/>
      <path class="cls-2" d="m599.27,78.77c0-8.83,7.16-15.99,15.99-15.99h6.98c8.13,0,14.96,6.08,15.88,14.14h10.59c0-.85-.04-1.71-.17-2.55-2.09-13.03-12.9-21.83-26.3-21.83h-6.98c-15,0-27.2,11.23-27.2,26.23v15.51c0,15,12.2,26.23,27.2,26.23h6.98c13.4,0,24.2-8.81,26.3-21.84.13-.84.17-1.7.17-2.55h-10.59c-.92,8.06-7.75,14.14-15.88,14.14h-6.98c-8.83,0-15.99-7.16-15.99-15.99v-15.51Z"/>
      <path class="cls-2" d="m550.37,52.1h-6.98c-15,0-27.2,11.23-27.2,26.23v15.51c0,15,12.2,26.23,27.2,26.23h6.98c13.83,0,24.88-9.38,26.45-23.1h-10.57c-.92,8.06-7.75,12.86-15.88,12.86h-6.98c-8.83,0-15.99-7.16-15.99-15.99v-7.76h49.45v-8.74c0-2.05-.22-4.11-.74-6.09-3.05-11.54-13.27-19.15-25.73-19.15Zm15.88,26.13h-38.85c.06-8.77,7.2-15.89,15.98-15.89h6.98c6.77,0,12.64,4.22,14.95,10.29.67,1.77.93,3.68.93,5.57v.02Z"/>
      <polygon class="cls-2" points="526.45 41.1 526.45 39.76 526.45 30.54 520.72 30.54 455.7 30.54 449.97 30.54 449.97 39.76 449.97 41.1 449.97 41.59 482.33 41.59 482.33 118.12 494.09 118.12 494.09 41.59 526.45 41.59 526.45 41.1"/>
    </g>
    <g>
      <path class="cls-2" d="m190.51,141.13c0-1.03.79-1.82,1.82-1.82.97,0,1.76.79,1.76,1.82s-.79,1.82-1.76,1.82c-1.03,0-1.82-.79-1.82-1.82Zm.44,4.43h2.67v16.07h-2.67v-16.07Z"/>
      <path class="cls-2" d="m228.34,152.54c0-3.28-1.76-4.95-4.4-4.95s-4.55,1.73-4.55,5.19v8.86h-2.64v-9.09c0-3.28-1.76-4.95-4.4-4.95s-4.55,1.73-4.55,5.19v8.86h-2.67v-16.07h2.67v2.32c1.06-1.7,2.96-2.61,5.07-2.61,2.64,0,4.84,1.17,5.89,3.58.94-2.32,3.23-3.58,5.69-3.58,3.67,0,6.51,2.29,6.51,6.89v9.47h-2.64v-9.09Z"/>
      <path class="cls-2" d="m248.96,145.3c2.99,0,5.04,1.52,5.98,3.2v-2.93h2.7v16.07h-2.7v-2.99c-.97,1.73-3.05,3.25-6.01,3.25-4.28,0-7.6-3.37-7.6-8.36s3.31-8.24,7.63-8.24Zm.53,2.32c-2.93,0-5.43,2.14-5.43,5.92s2.49,6.01,5.43,6.01,5.46-2.2,5.46-5.98-2.52-5.95-5.46-5.95Z"/>
      <path class="cls-2" d="m275.76,145.3c2.93,0,5.04,1.46,5.98,3.2v-2.93h2.7v16.42c0,4.43-2.96,7.57-7.68,7.57-4.22,0-7.24-2.14-7.77-5.57h2.64c.59,1.94,2.49,3.25,5.13,3.25,2.84,0,4.99-1.82,4.99-5.25v-3.37c-.97,1.73-3.05,3.28-5.98,3.28-4.31,0-7.62-3.37-7.62-8.36s3.31-8.24,7.62-8.24Zm.53,2.32c-2.93,0-5.43,2.14-5.43,5.92s2.49,6.01,5.43,6.01,5.45-2.2,5.45-5.98-2.52-5.95-5.45-5.95Z"/>
      <path class="cls-2" d="m295.5,141.13c0-1.03.79-1.82,1.82-1.82.97,0,1.76.79,1.76,1.82s-.79,1.82-1.76,1.82c-1.03,0-1.82-.79-1.82-1.82Zm.44,4.43h2.67v16.07h-2.67v-16.07Z"/>
      <path class="cls-2" d="m321.89,152.54c0-3.28-1.79-4.95-4.49-4.95s-4.6,1.7-4.6,5.16v8.88h-2.67v-16.07h2.67v2.29c1.06-1.67,2.99-2.58,5.16-2.58,3.72,0,6.57,2.29,6.57,6.89v9.47h-2.64v-9.09Z"/>
      <path class="cls-2" d="m342.83,161.89c-4.58,0-7.95-3.22-7.95-8.33s3.26-8.27,7.95-8.27,7.71,3.28,7.71,7.68c0,.59-.03,1.05-.09,1.61h-12.85c.21,3.25,2.49,5.04,5.22,5.04,2.4,0,3.93-1.23,4.52-2.96h2.87c-.82,2.93-3.4,5.22-7.39,5.22Zm-5.19-9.47h10.15c.03-3.14-2.32-4.87-5.07-4.87-2.61,0-4.78,1.73-5.07,4.87Z"/>
      <path class="cls-2" d="m382.8,161.89c-4.57,0-7.95-3.22-7.95-8.33s3.25-8.27,7.95-8.27,7.71,3.28,7.71,7.68c0,.59-.03,1.05-.09,1.61h-12.84c.21,3.25,2.49,5.04,5.22,5.04,2.41,0,3.93-1.23,4.52-2.96h2.87c-.82,2.93-3.4,5.22-7.39,5.22Zm-5.19-9.47h10.15c.03-3.14-2.32-4.87-5.07-4.87-2.61,0-4.78,1.73-5.07,4.87Z"/>
      <path class="cls-2" d="m405.59,155.65l-3.67,5.98h-2.79l5.19-7.98-5.19-8.09h3.02l3.81,5.95,3.64-5.95h2.79l-5.16,7.95,5.19,8.12h-3.02l-3.81-5.98Z"/>
      <path class="cls-2" d="m430.72,145.3c4.31,0,7.62,3.22,7.62,8.24s-3.31,8.36-7.62,8.36c-2.93,0-5.02-1.58-6.01-3.22v10.59h-2.67v-23.7h2.67v2.96c.97-1.7,3.08-3.22,6.01-3.22Zm-.56,2.32c-2.9,0-5.46,2.23-5.46,5.95s2.55,5.98,5.46,5.98,5.46-2.23,5.46-6.01-2.49-5.92-5.46-5.92Z"/>
      <path class="cls-2" d="m448.85,139.93h2.67v21.7h-2.67v-21.7Z"/>
      <path class="cls-2" d="m470.05,161.89c-4.55,0-8.01-3.22-8.01-8.33s3.58-8.27,8.12-8.27,8.12,3.2,8.12,8.27-3.67,8.33-8.24,8.33Zm0-2.35c2.79,0,5.51-1.91,5.51-5.98s-2.67-5.95-5.43-5.95-5.37,1.91-5.37,5.95,2.49,5.98,5.28,5.98Z"/>
      <path class="cls-2" d="m491.46,161.63h-2.67v-16.07h2.67v2.61c.91-1.79,2.64-2.9,5.19-2.9v2.76h-.7c-2.55,0-4.49,1.14-4.49,4.87v8.74Z"/>
      <path class="cls-2" d="m513.66,161.89c-4.57,0-7.95-3.22-7.95-8.33s3.26-8.27,7.95-8.27,7.71,3.28,7.71,7.68c0,.59-.03,1.05-.09,1.61h-12.85c.21,3.25,2.49,5.04,5.22,5.04,2.41,0,3.93-1.23,4.52-2.96h2.87c-.82,2.93-3.4,5.22-7.39,5.22Zm-5.19-9.47h10.15c.03-3.14-2.32-4.87-5.07-4.87-2.61,0-4.78,1.73-5.07,4.87Z"/>
      <path class="cls-2" d="m546.24,141.13c0-1.03.79-1.82,1.82-1.82.97,0,1.76.79,1.76,1.82s-.79,1.82-1.76,1.82c-1.03,0-1.82-.79-1.82-1.82Zm.44,4.43h2.67v16.07h-2.67v-16.07Z"/>
      <path class="cls-2" d="m572.63,152.54c0-3.28-1.79-4.95-4.49-4.95s-4.6,1.7-4.6,5.16v8.88h-2.67v-16.07h2.67v2.29c1.05-1.67,2.99-2.58,5.16-2.58,3.72,0,6.57,2.29,6.57,6.89v9.47h-2.64v-9.09Z"/>
      <path class="cls-2" d="m598.38,152.54c0-3.28-1.79-4.95-4.49-4.95s-4.6,1.7-4.6,5.16v8.88h-2.67v-16.07h2.67v2.29c1.06-1.67,2.99-2.58,5.16-2.58,3.72,0,6.57,2.29,6.57,6.89v9.47h-2.64v-9.09Z"/>
      <path class="cls-2" d="m619.38,161.89c-4.55,0-8.01-3.22-8.01-8.33s3.58-8.27,8.12-8.27,8.12,3.2,8.12,8.27-3.67,8.33-8.24,8.33Zm0-2.35c2.79,0,5.51-1.91,5.51-5.98s-2.67-5.95-5.42-5.95-5.37,1.91-5.37,5.95,2.49,5.98,5.28,5.98Z"/>
      <path class="cls-2" d="m639.09,145.56l5.01,13.61,4.99-13.61h2.85l-6.31,16.07h-3.11l-6.31-16.07h2.87Z"/>
      <path class="cls-2" d="m668.18,145.3c2.99,0,5.04,1.52,5.98,3.2v-2.93h2.7v16.07h-2.7v-2.99c-.97,1.73-3.05,3.25-6.01,3.25-4.28,0-7.6-3.37-7.6-8.36s3.31-8.24,7.62-8.24Zm.53,2.32c-2.93,0-5.43,2.14-5.43,5.92s2.49,6.01,5.43,6.01,5.46-2.2,5.46-5.98-2.52-5.95-5.46-5.95Z"/>
      <path class="cls-2" d="m688.94,147.76h-2.08v-2.2h2.08v-4.05h2.67v4.05h4.19v2.2h-4.19v9.47c0,1.58.59,2.14,2.23,2.14h1.96v2.26h-2.4c-2.85,0-4.46-1.17-4.46-4.4v-9.47Z"/>
      <path class="cls-2" d="m712.96,161.89c-4.58,0-7.95-3.22-7.95-8.33s3.26-8.27,7.95-8.27,7.71,3.28,7.71,7.68c0,.59-.03,1.05-.09,1.61h-12.85c.21,3.25,2.49,5.04,5.22,5.04,2.4,0,3.93-1.23,4.52-2.96h2.87c-.82,2.93-3.4,5.22-7.39,5.22Zm-5.19-9.47h10.15c.03-3.14-2.32-4.87-5.07-4.87-2.61,0-4.78,1.73-5.07,4.87Z"/>
    </g>
  </g>
</svg>